<svg viewBox="0 0 620 260" xmlns="http://www.w3.org/2000/svg" class="dg" font-family="-apple-system, Segoe UI, Roboto, sans-serif">
  <defs>
    <marker id="arrow" markerWidth="10" markerHeight="10" refX="8" refY="3" orient="auto" markerUnits="strokeWidth">
      <path d="M0,0 L8,3 L0,6 Z" fill="var(--dg-line, #5F6368)"/>
    </marker>
  </defs>
  <text x="310" y="20" text-anchor="middle" font-size="14" fill="var(--dg-ink, #202124)" font-weight="600">Metadata snapshots point at subsets of plain Parquet files</text>

  <rect x="120" y="40" width="380" height="60" rx="8" fill="var(--dg-fill, #F1F3F4)" stroke="var(--dg-stroke, #9AA0A6)" stroke-width="1.5"/>
  <text x="310" y="35" text-anchor="middle" font-size="9" fill="var(--dg-muted, #5F6368)">metadata layer</text>
  <rect x="140" y="55" width="90" height="30" rx="4" fill="var(--dg-fill, #F1F3F4)" stroke="var(--dg-stroke, #9AA0A6)"/>
  <text x="185" y="75" text-anchor="middle" font-size="10" fill="var(--dg-ink, #202124)">v1</text>
  <rect x="265" y="55" width="90" height="30" rx="4" fill="var(--dg-fill, #F1F3F4)" stroke="var(--dg-stroke, #9AA0A6)"/>
  <text x="310" y="75" text-anchor="middle" font-size="10" fill="var(--dg-ink, #202124)">v2</text>
  <rect x="390" y="55" width="90" height="30" rx="4" fill="var(--dg-accent-bg, #E3F3F1)" stroke="var(--dg-accent, #0C8F88)" stroke-width="2"/>
  <text x="435" y="75" text-anchor="middle" font-size="10" fill="var(--dg-ink, #202124)" font-weight="600">v3 (current)</text>

  <text x="60" y="150" text-anchor="middle" font-size="9" fill="var(--dg-muted, #5F6368)">Parquet data files</text>
  <g>
    <rect x="30" y="160" width="40" height="30" rx="3" fill="var(--dg-fill, #F1F3F4)" stroke="var(--dg-stroke, #9AA0A6)"/>
    <rect x="80" y="160" width="40" height="30" rx="3" fill="var(--dg-fill, #F1F3F4)" stroke="var(--dg-stroke, #9AA0A6)"/>
    <rect x="130" y="160" width="40" height="30" rx="3" fill="var(--dg-fill, #F1F3F4)" stroke="var(--dg-stroke, #9AA0A6)"/>
    <rect x="180" y="160" width="40" height="30" rx="3" fill="var(--dg-fill, #F1F3F4)" stroke="var(--dg-stroke, #9AA0A6)"/>
    <rect x="230" y="160" width="40" height="30" rx="3" fill="var(--dg-fill, #F1F3F4)" stroke="var(--dg-stroke, #9AA0A6)"/>
    <rect x="280" y="160" width="40" height="30" rx="3" fill="var(--dg-fill, #F1F3F4)" stroke="var(--dg-stroke, #9AA0A6)"/>
    <rect x="330" y="160" width="40" height="30" rx="3" fill="var(--dg-fill, #F1F3F4)" stroke="var(--dg-stroke, #9AA0A6)"/>
    <rect x="380" y="160" width="40" height="30" rx="3" fill="var(--dg-fill, #F1F3F4)" stroke="var(--dg-stroke, #9AA0A6)"/>
    <rect x="430" y="160" width="40" height="30" rx="3" fill="var(--dg-fill, #F1F3F4)" stroke="var(--dg-stroke, #9AA0A6)"/>
  </g>

  <line x1="185" y1="85" x2="50" y2="160" stroke="var(--dg-line, #5F6368)"/>
  <line x1="185" y1="85" x2="100" y2="160" stroke="var(--dg-line, #5F6368)"/>
  <line x1="185" y1="85" x2="150" y2="160" stroke="var(--dg-line, #5F6368)"/>

  <line x1="310" y1="85" x2="150" y2="160" stroke="var(--dg-line, #5F6368)"/>
  <line x1="310" y1="85" x2="200" y2="160" stroke="var(--dg-line, #5F6368)"/>
  <line x1="310" y1="85" x2="250" y2="160" stroke="var(--dg-line, #5F6368)"/>

  <line x1="435" y1="85" x2="250" y2="160" stroke="var(--dg-accent, #0C8F88)" stroke-width="1.5"/>
  <line x1="435" y1="85" x2="300" y2="160" stroke="var(--dg-accent, #0C8F88)" stroke-width="1.5"/>
  <line x1="435" y1="85" x2="350" y2="160" stroke="var(--dg-accent, #0C8F88)" stroke-width="1.5"/>
  <line x1="435" y1="85" x2="400" y2="160" stroke="var(--dg-accent, #0C8F88)" stroke-width="1.5"/>
  <line x1="435" y1="85" x2="450" y2="160" stroke="var(--dg-accent, #0C8F88)" stroke-width="1.5"/>

  <text x="310" y="220" text-anchor="middle" font-size="10" fill="var(--dg-muted, #5F6368)">v1 and v2 reference overlapping but different files than the current v3.</text>
</svg>
